HIERARCHY
ROOT Hips
{
	OFFSET 0.00000 0.00000 0.00000
	CHANNELS 6 Xposition Yposition Zposition Zrotation Yrotation Xrotation 
	JOINT LHipJoint
	{
		OFFSET 0 0 0
		CHANNELS 3 Zrotation Yrotation Xrotation
		JOINT LeftUpLeg
		{
			OFFSET 1.24777 -1.64261 0.71711
			CHANNELS 3 Zrotation Yrotation Xrotation
			JOINT LeftLeg
			{
				OFFSET 2.49329 -6.85026 0.00000
				CHANNELS 3 Zrotation Yrotation Xrotation
				JOINT LeftFoot
				{
					OFFSET 2.36770 -6.50520 0.00000
					CHANNELS 3 Zrotation Yrotation Xrotation
					JOINT LeftToeBase
					{
						OFFSET 0.14820 -0.40718 2.21395
						CHANNELS 3 Zrotation Yrotation Xrotation
						End Site
						{
							OFFSET 0.00000 -0.00000 1.13491
						}
					}
				}
			}
		}
	}
	JOINT RHipJoint
	{
		OFFSET 0 0 0
		CHANNELS 3 Zrotation Yrotation Xrotation
		JOINT RightUpLeg
		{
			OFFSET -1.18320 -1.64261 0.71711
			CHANNELS 3 Zrotation Yrotation Xrotation
			JOINT RightLeg
			{
				OFFSET -2.46559 -6.77417 0.00000
				CHANNELS 3 Zrotation Yrotation Xrotation
				JOINT RightFoot
				{
					OFFSET -2.38450 -6.55136 0.00000
					CHANNELS 3 Zrotation Yrotation Xrotation
					JOINT RightToeBase
					{
						OFFSET -0.17454 -0.47954 2.02925
						CHANNELS 3 Zrotation Yrotation Xrotation
						End Site
						{
							OFFSET -0.00000 -0.00000 1.05076
						}
					}
				}
			}
		}
	}
	JOINT LowerBack
	{
		OFFSET 0 0 0
		CHANNELS 3 Zrotation Yrotation Xrotation
		JOINT Spine
		{
			OFFSET -0.02305 1.98660 0.00319
			CHANNELS 3 Zrotation Yrotation Xrotation
			JOINT Spine1
			{
				OFFSET -0.00718 1.99033 -0.00533
				CHANNELS 3 Zrotation Yrotation Xrotation
				JOINT Neck
				{
					OFFSET 0 0 0
					CHANNELS 3 Zrotation Yrotation Xrotation
					JOINT Neck1
					{
						OFFSET 0.00095 1.61015 0.10698
						CHANNELS 3 Zrotation Yrotation Xrotation
						JOINT Head
						{
							OFFSET -0.01060 1.59924 0.01317
							CHANNELS 3 Zrotation Yrotation Xrotation
							End Site
							{
								OFFSET -0.00458 1.63304 -0.00592
							}
						}
					}
				}
				JOINT LeftShoulder
				{
					OFFSET 0 0 0
					CHANNELS 3 Zrotation Yrotation Xrotation
					JOINT LeftArm
					{
						OFFSET 3.05381 1.47088 -0.01697
						CHANNELS 3 Zrotation Yrotation Xrotation
						JOINT LeftForeArm
						{
							OFFSET 4.25106 -0.00000 0.00000
							CHANNELS 3 Zrotation Yrotation Xrotation
							JOINT LeftHand
							{
								OFFSET 3.27592 -0.00000 0.00000
								CHANNELS 3 Zrotation Yrotation Xrotation
								JOINT LeftFingerBase
								{
									OFFSET 0 0 0
									CHANNELS 3 Zrotation Yrotation Xrotation
									JOINT LeftHandIndex1
									{
										OFFSET 0.65781 -0.00000 0.00000
										CHANNELS 3 Zrotation Yrotation Xrotation
										End Site
										{
											OFFSET 0.53034 -0.00000 0.00000
										}
									}
								}
								JOINT LThumb
								{
									OFFSET 0 0 0
									CHANNELS 3 Zrotation Yrotation Xrotation
									End Site
									{
										OFFSET 0.53844 -0.00000 0.53844
									}
								}
							}
						}
					}
				}
				JOINT RightShoulder
				{
					OFFSET 0 0 0
					CHANNELS 3 Zrotation Yrotation Xrotation
					JOINT RightArm
					{
						OFFSET -2.83695 1.31619 -0.22674
						CHANNELS 3 Zrotation Yrotation Xrotation
						JOINT RightForeArm
						{
							OFFSET -4.46073 -0.00000 0.00000
							CHANNELS 3 Zrotation Yrotation Xrotation
							JOINT RightHand
							{
								OFFSET -3.44416 -0.00000 0.00000
								CHANNELS 3 Zrotation Yrotation Xrotation
								JOINT RightFingerBase
								{
									OFFSET 0 0 0
									CHANNELS 3 Zrotation Yrotation Xrotation
									JOINT RightHandIndex1
									{
										OFFSET -0.61651 -0.00000 0.00000
										CHANNELS 3 Zrotation Yrotation Xrotation
										End Site
										{
											OFFSET -0.49705 -0.00000 0.00000
										}
									}
								}
								JOINT RThumb
								{
									OFFSET 0 0 0
									CHANNELS 3 Zrotation Yrotation Xrotation
									End Site
									{
										OFFSET -0.50464 -0.00000 0.50464
									}
								}
							}
						}
					}
				}
			}
		}
	}
}
MOTION
Frames: 10
Frame Time: .0083333
6.2431 16.836 -28.1378 0 0 0 0 0 0 -21 0 0 0 0 0 0 0 0 0 0 0 0 0 0 21 0 0 0 0 0 0 0 0 0 0 0 0 0 0 0 0 0 0 0 0 0 0 -16 0 0 21 0 0 11 0 0 0 -8 0 0 0 0 0 0 0 0 0 0 0 0 0 0 0 0 0 0 0 0 8 0 0 0 0 0 0 0 0 0 0 0 0 0 0 0 0 0
6.2431 16.8360 -28.1378 -3.0577 -2.5298 9.0217 0.0000 0.0000 0.0000 -18.7607 -4.6580 -19.9813 3.5781 11.5768 34.2509 4.3302 -8.5461 -38.0162 4.1963 12.4171 37.2240 0.0000 0.0000 0.0000 18.4734 6.7557 -18.3095 -3.5992 -11.6071 34.3559 -2.8386 -0.0646 -31.9758 -1.2854 -7.1844 20.2629 -5.0377 3.6697 -2.0514 3.4928 5.0036 -2.6673 6.4244 2.6702 -2.3640 1.9482 -2.3686 -9.8470 -1.6538 -3.3254 -1.3793 -0.9757 -1.6982 1.1643 -0.0000 -0.0000 0.0000 -90.2572 10.8248 44.5241 18.9710 -29.3826 -5.0166 -0.0000 0.0000 -2.1752 10.7437 9.4902 1.7919 -7.1250 0.0000 -0.0000 -14.0441 39.2563 2.0346 -0.0000 -0.0000 0.0000 89.1247 -13.0836 22.7370 -23.1071 34.2057 -7.1984 0.0000 0.0000 9.8947 -25.5119 -20.4748 9.4772 7.1250 -0.0000 -0.0000 3.1013 -52.4296 -0.5676
6.2418 16.8435 -28.1012 -2.5466 -2.6808 8.9764 0.0000 0.0000 0.0000 -19.4118 -4.6082 -19.4920 3.4940 11.4548 33.8295 4.3377 -8.3706 -38.0669 4.1923 12.4120 37.2053 0.0000 0.0000 0.0000 17.9268 6.2673 -18.0318 -3.5253 -11.5003 33.9865 -2.8715 0.1493 -32.0965 -1.2730 -7.1509 20.1632 -5.3415 3.6263 -2.5446 3.2651 4.9635 -2.5431 6.3981 2.6362 -1.9582 1.9713 -2.3447 -9.8194 -1.5554 -3.2978 -1.4292 -0.9462 -1.6824 1.1450 -0.0000 -0.0000 0.0000 -90.1576 10.9084 44.2327 18.9880 -29.4037 -5.0249 -0.0000 0.0000 -2.1724 10.4097 10.2769 1.8772 -7.1250 0.0000 -0.0000 -14.5126 40.0030 1.8321 -0.0000 -0.0000 0.0000 89.3110 -13.2328 22.7879 -23.2269 34.3360 -7.2659 0.0000 0.0000 10.0632 -25.6008 -20.3265 9.4496 7.1250 -0.0000 -0.0000 2.9722 -52.2869 -0.5335
6.2372 16.8492 -28.0946 -2.5937 -2.9135 9.1411 0.0000 0.0000 0.0000 -19.3667 -4.5760 -19.5660 3.4712 11.4213 33.7144 4.3390 -8.1997 -38.0889 4.1684 12.3812 37.0941 0.0000 0.0000 0.0000 17.9806 6.5160 -17.9441 -3.4534 -11.3951 33.6242 -2.8657 0.0745 -32.0866 -1.3243 -7.2879 20.5710 -5.1367 3.6674 -2.7635 3.1756 5.0223 -2.5950 6.2012 2.6589 -1.8708 2.0385 -2.3160 -9.8753 -1.5287 -3.2680 -1.3612 -0.9503 -1.6671 1.1766 -0.0000 -0.0000 0.0000 -90.0245 11.0472 44.0594 19.0598 -29.4929 -5.0602 -0.0000 0.0000 -2.3480 7.6748 15.5168 2.0646 -7.1250 0.0000 -0.0000 -18.4265 44.8019 0.0933 -0.0000 -0.0000 0.0000 89.4261 -13.1584 22.9227 -23.0717 34.1671 -7.1785 0.0000 0.0000 10.1332 -25.6105 -20.1760 9.3877 7.1250 -0.0000 -0.0000 2.9242 -52.1269 -0.5134
6.2333 16.8525 -28.0886 -2.6039 -3.1195 9.2742 0.0000 0.0000 0.0000 -19.3635 -4.5350 -19.6044 3.4422 11.3787 33.5679 4.3301 -8.1040 -38.0566 4.1593 12.3694 37.0516 0.0000 0.0000 0.0000 17.9843 6.7791 -17.8057 -3.3855 -11.2944 33.2794 -2.8697 0.0104 -32.1286 -1.3680 -7.4024 20.9130 -4.9218 3.6829 -2.9744 3.0723 5.0454 -2.6191 5.9861 2.6614 -1.7512 2.0165 -2.2834 -9.8269 -1.4107 -3.2239 -1.4168 -0.9060 -1.6426 1.1529 -0.0000 -0.0000 0.0000 -89.8948 11.1446 43.9192 19.1130 -29.5589 -5.0865 -0.0000 0.0000 -2.5045 11.6513 3.1323 0.6455 -7.1250 0.0000 -0.0000 -12.1120 33.0015 3.6307 -0.0000 -0.0000 0.0000 89.4593 -13.7445 23.4775 -23.7175 34.8641 -7.5445 0.0000 0.0000 9.8558 -25.6998 -20.3602 9.5055 7.1250 -0.0000 -0.0000 2.8798 -52.3415 -0.5208
6.2138 16.8552 -28.0946 -2.7136 -2.9920 9.2644 0.0000 0.0000 0.0000 -19.1260 -4.5278 -19.6306 3.4334 11.3656 33.5230 4.2833 -8.0588 -37.8412 4.1455 12.3515 36.9871 0.0000 0.0000 0.0000 18.2463 7.3249 -17.3931 -3.3221 -11.1991 32.9543 -2.8274 -0.7467 -32.1312 -1.3332 -7.3115 20.6415 -4.8533 3.6696 -3.0666 3.0727 5.0293 -2.5109 5.9594 2.6439 -1.5786 2.0919 -2.3087 -9.8751 -1.3882 -3.2673 -1.5373 -0.9124 -1.6644 1.1209 -0.0000 -0.0000 0.0000 -89.7134 10.9731 44.1836 19.1665 -29.6250 -5.1129 -0.0000 0.0000 -2.6565 10.7180 6.4725 1.2223 -7.1250 0.0000 -0.0000 -13.4333 36.2764 2.9473 -0.0000 -0.0000 0.0000 89.6347 -12.9508 23.0896 -23.1315 34.2323 -7.2121 0.0000 0.0000 10.0930 -25.7004 -20.1918 9.4318 7.1250 -0.0000 -0.0000 2.8365 -52.1603 -0.5003
6.2036 16.8585 -28.0909 -2.7206 -3.0340 9.3176 0.0000 0.0000 0.0000 -19.0773 -4.5243 -19.6445 3.4243 11.3522 33.4769 4.2714 -7.9850 -37.7925 4.1339 12.3365 36.9330 0.0000 0.0000 0.0000 18.3126 7.6158 -17.1488 -3.2634 -11.1097 32.6509 -2.8137 -1.0775 -32.1646 -1.3344 -7.3146 20.6507 -4.7458 3.6645 -3.2364 3.0043 5.0252 -2.4727 5.8416 2.6333 -1.4270 2.1296 -2.3010 -9.8876 -1.3335 -3.2625 -1.5940 -0.9009 -1.6612 1.1051 -0.0000 0.0000 0.0000 -89.5658 10.9663 44.2065 19.2217 -29.6933 -5.1402 -0.0000 0.0000 -2.7871 10.8970 5.4856 1.0543 -7.1250 0.0000 -0.0000 -13.1044 35.3092 3.1887 -0.0000 0.0000 0.0000 89.7518 -12.8007 23.1267 -23.0717 34.1672 -7.1785 0.0000 0.0000 10.1329 -25.7371 -20.1423 9.4252 7.1250 -0.0000 -0.0000 2.7867 -52.1138 -0.4884
6.1929 16.8615 -28.0891 -2.7493 -3.0448 9.3654 0.0000 0.0000 0.0000 -18.9975 -4.5288 -19.6660 3.4156 11.3393 33.4328 4.2557 -7.9254 -37.7246 4.1230 12.3223 36.8819 0.0000 0.0000 0.0000 18.4079 7.9309 -16.9051 -3.2094 -11.0265 32.3693 -2.7966 -1.4465 -32.1963 -1.3299 -7.3028 20.6156 -4.6185 3.6529 -3.3746 2.9454 5.0105 -2.4376 5.7202 2.6181 -1.2941 2.1658 -2.2937 -9.9006 -1.2838 -3.2579 -1.6523 -0.8906 -1.6583 1.0888 -0.0000 -0.0000 0.0000 -89.4177 10.9522 44.2583 19.2795 -29.7645 -5.1689 -0.0000 0.0000 -2.9134 11.0657 4.6413 0.9066 -7.1250 0.0000 -0.0000 -12.8211 34.4800 3.3817 -0.0000 -0.0000 0.0000 89.8631 -12.6283 23.1560 -23.0010 34.0899 -7.1388 0.0000 0.0000 10.1681 -25.7802 -20.0898 9.4199 7.1250 -0.0000 -0.0000 2.7297 -52.0652 -0.4751
6.1824 16.8642 -28.0873 -2.7685 -3.0251 9.3995 0.0000 0.0000 0.0000 -18.9280 -4.5414 -19.6668 3.4045 11.3227 33.3760 4.2380 -7.8790 -37.6457 4.1133 12.3097 36.8365 0.0000 0.0000 0.0000 18.4965 8.2160 -16.6528 -3.1562 -10.9438 32.0906 -2.7769 -1.8238 -32.2200 -1.3172 -7.2692 20.5155 -4.4938 3.6300 -3.4967 2.8866 4.9800 -2.4002 5.5994 2.5952 -1.1660 2.1973 -2.2852 -9.9095 -1.2357 -3.2512 -1.7140 -0.8798 -1.6543 1.0708 0.0000 0.0000 0.0000 -89.2732 10.9352 44.3216 19.3371 -29.8354 -5.1975 -0.0000 0.0000 -3.0247 11.2685 3.8692 0.7703 -7.1250 0.0000 -0.0000 -12.5316 33.7213 3.5382 0.0000 0.0000 0.0000 89.9710 -12.4591 23.1829 -22.9396 34.0227 -7.1045 0.0000 0.0000 10.2028 -25.8457 -20.0200 9.4159 7.1250 -0.0000 -0.0000 2.6459 -52.0021 -0.4564
6.1722 16.8667 -28.0853 -2.7797 -2.9803 9.4248 0.0000 0.0000 0.0000 -18.8684 -4.5646 -19.6561 3.3936 11.3064 33.3205 4.2206 -7.8444 -37.5670 4.1039 12.2973 36.7921 0.0000 0.0000 0.0000 18.5767 8.4690 -16.4057 -3.1065 -10.8654 31.8273 -2.7558 -2.1985 -32.2391 -1.2972 -7.2161 20.3570 -4.3665 3.5962 -3.6049 2.8268 4.9341 -2.3643 5.4749 2.5650 -1.0454 2.2260 -2.2738 -9.9165 -1.1913 -3.2401 -1.7735 -0.8696 -1.6483 1.0532 0.0000 0.0000 0.0000 -89.1343 10.9215 44.3846 19.3954 -29.9070 -5.2265 -0.0000 0.0000 -3.1214 11.2768 3.7532 0.7478 -7.1250 0.0000 -0.0000 -12.5067 33.6063 3.5666 0.0000 0.0000 0.0000 90.0771 -12.2835 23.2041 -22.8689 33.9451 -7.0649 0.0000 0.0000 10.2459 -25.9446 -19.9081 9.4068 7.1250 -0.0000 -0.0000 2.5181 -51.8995 -0.4280
